<?xml version="1.0" encoding="UTF-8" standalone="no"?>
<!-- Created with Inkscape (http://www.inkscape.org/) -->

<svg
   xmlns:dc="http://purl.org/dc/elements/1.1/"
   xmlns:cc="http://creativecommons.org/ns#"
   xmlns:rdf="http://www.w3.org/1999/02/22-rdf-syntax-ns#"
   xmlns:svg="http://www.w3.org/2000/svg"
   xmlns="http://www.w3.org/2000/svg"
   xmlns:sodipodi="http://sodipodi.sourceforge.net/DTD/sodipodi-0.dtd"
   xmlns:inkscape="http://www.inkscape.org/namespaces/inkscape"
   width="183.45778mm"
   height="183.09166mm"
   viewBox="0 0 650.04725 648.74997"
   id="svg2"
   version="1.1"
   inkscape:version="0.91 r13725"
   sodipodi:docname="logo.svg">
  <defs
     id="defs4" />
  <sodipodi:namedview
     id="base"
     pagecolor="#ffffff"
     bordercolor="#666666"
     borderopacity="1.0"
     inkscape:pageopacity="0.0"
     inkscape:pageshadow="2"
     inkscape:zoom="0.175"
     inkscape:cx="82.426175"
     inkscape:cy="407.30132"
     inkscape:document-units="px"
     inkscape:current-layer="layer1"
     showgrid="false"
     inkscape:window-width="1366"
     inkscape:window-height="705"
     inkscape:window-x="-8"
     inkscape:window-y="-8"
     inkscape:window-maximized="1"
     fit-margin-top="0"
     fit-margin-left="0"
     fit-margin-right="0"
     fit-margin-bottom="0" />
  <metadata
     id="metadata7">
    <rdf:RDF>
      <cc:Work
         rdf:about="">
        <dc:format>image/svg+xml</dc:format>
        <dc:type
           rdf:resource="http://purl.org/dc/dcmitype/StillImage" />
        <dc:title></dc:title>
      </cc:Work>
    </rdf:RDF>
  </metadata>
  <g
     inkscape:label="Layer 1"
     inkscape:groupmode="layer"
     id="layer1"
     transform="translate(-37.120469,-239.14793)">
    <path
       style="fill:#202c34"
       d="m 37.142829,413.68343 0,-174.5355 14.24646,0 14.24648,0 0.48667,15.3125 c 0.52854,16.62974 2.17837,21.76482 9.42628,29.33949 8.23933,8.61075 7.51235,8.47301 44.719111,8.47301 37.37145,0 36.09145,0.2501 45.2005,-8.83174 7.21243,-7.19087 9.1745,-13.57458 9.1745,-29.84968 l 0,-14.44358 14.375,0 14.375,0 0,324.375 0,324.375 -14.375,0 -14.375,0 0,-13.83077 c 0,-19.98621 -3.38531,-27.26574 -16.71142,-35.93505 l -5.16358,-3.35918 -31.875,0 c -30.224651,0 -32.134721,0.13911 -36.891391,2.68684 -6.73381,3.60671 -11.05533,8.12202 -14.53575,15.18755 -2.41425,4.90115 -2.9679,8.31151 -3.33825,20.56311 l -0.44398,14.6875 -14.28151,0 -14.28148,0 z M 152.07121,724.55982 c 8.69562,-2.80838 17.70945,-11.47368 20.48925,-19.69706 3.1159,-9.21762 3.04843,-57.42922 -0.0926,-66.1921 -2.7153,-7.57509 -9.53187,-14.75197 -17.257,-18.16917 -5.39666,-2.3872 -8.23585,-2.60407 -34.1644,-2.60975 -33.167411,-0.007 -36.966701,0.8222 -45.600121,9.95518 -8.56044,9.0558 -9.55247,13.65661 -9.55967,44.33618 -0.007,31.02244 0.96024,35.26569 10.13867,44.46509 8.82951,8.8497 13.15991,9.83103 43.786481,9.92261 20.8406,0.0622 27.03555,-0.32386 32.25942,-2.01098 z m 4.46513,-218.03988 c 7.26188,-3.83102 11.31621,-8.09907 14.91632,-15.70261 3.1368,-6.62501 3.18901,-7.21294 3.12033,-35.14107 -0.0798,-32.41139 -0.75053,-35.50168 -9.70402,-44.70255 -8.21815,-8.44523 -12.39875,-9.32578 -44.27644,-9.32578 -21.800861,0 -28.608191,0.40991 -33.527321,2.01887 -3.39482,1.11039 -6.17238,2.51664 -6.17238,3.125 0,0.60838 -0.58936,1.10613 -1.30969,1.10613 -2.29173,0 -7.62822,6.65582 -10.70966,13.3574 -2.84587,6.1893 -2.98065,7.69115 -2.98065,33.21483 0,21.62297 0.39729,27.90983 2.07861,32.8926 2.849,8.44328 7.22299,13.83288 14.71259,18.12877 l 6.3338,3.63294 31.268511,0.0113 c 29.37567,0.0112 31.57007,-0.14736 36.25,-2.61627 z m 109.37002,245.44049 c 0.0142,-143.49121 -0.0941,-140.529 5.54438,-151.43276 2.99774,-5.79699 12.48712,-14.7461 18.57909,-17.52132 2.95951,-1.34821 9.00501,-3.06646 13.43446,-3.81833 5.64737,-0.9586 64.07351,-1.26218 195.55354,-1.01607 l 187.5,0.35098 -0.0687,86.875 c 0.92187,173.81935 0.6935,95.31308 0.6935,222.5 l -64.6875,-0.0295 -224.93725,0.0295 -131.625,0 0.0135,-135.9375 z m 31.86147,-204.59841 c -6.37012,-1.86447 -14.375,-5.87141 -14.375,-7.1956 0,-0.56018 -0.84375,-1.01849 -1.875,-1.01849 -1.03125,0 -1.875,-0.42762 -1.875,-0.95027 0,-0.52266 -1.29429,-2.35078 -2.8762,-4.0625 -3.83985,-4.15498 -7.96794,-11.97468 -9.56159,-18.11223 -0.85887,-3.30775 -1.30062,-51.00791 -1.30523,-140.9375 l -0.007,-135.9375 210.625,0 210.625,0 -0.0187,59.6875 c -0.60625,249.6875 0.22221,68.94253 -0.60625,249.6875 l -191.875,0.15128 c -143.28225,0.113 -193.14126,-0.21937 -196.875,-1.31219 z"
       id="path4147"
       inkscape:connector-curvature="0"
       sodipodi:nodetypes="ccccssssscccccccsscsssscccccsssssssscccssssssssssscccccsssscccccccccsssssscccccscc" />
  </g>
</svg>
